<svg version="1.1" id="Layer_1" xmlns="http://www.w3.org/2000/svg" xmlns:xlink="http://www.w3.org/1999/xlink" x="0px" y="0px"
	 width="100%" viewBox="0 0 540 360" enable-background="new 0 0 540 360" xml:space="preserve">
<path fill="#F2E2D3" opacity="1.000000" stroke="none" 
	d="
M541.000000,292.000000 
	C541.000000,314.993805 541.000000,337.987579 541.000000,360.986023 
	C361.054749,360.990692 181.109482,360.990692 1.082109,360.990692 
	C1.082109,241.087143 1.082109,121.174217 1.082109,1.130646 
	C180.999939,1.130646 360.999939,1.130646 541.000000,1.130646 
	C541.000000,36.416737 541.000000,71.740517 540.532349,107.567009 
	C514.431274,108.028748 488.797821,107.987778 463.007141,107.631699 
	C459.282043,98.756958 452.876495,93.308479 444.068268,90.851868 
	C439.133179,89.475487 434.019592,88.739288 428.899292,87.419235 
	C427.547485,87.211769 426.282776,87.299728 424.562408,87.499496 
	C419.064697,87.526749 414.022614,87.442192 408.808594,87.051338 
	C405.763611,86.942131 402.890656,87.139221 399.568237,87.478516 
	C350.385315,87.635323 301.651794,87.651817 252.918274,87.650963 
	C251.934906,87.650940 250.951523,87.448479 249.824814,87.055450 
	C247.841675,86.826324 246.001862,86.882210 243.690704,87.021210 
	C238.228928,87.104317 233.238495,87.104317 228.248077,87.104317 
	C227.668350,88.048164 227.088608,88.992012 226.508881,89.935852 
	C228.351303,90.927933 230.172043,91.963196 232.041534,92.901367 
	C234.488556,94.129364 236.974075,95.280663 239.299011,96.830124 
	C236.775345,101.821709 234.395706,106.448135 231.869034,111.376587 
	C230.638260,113.140640 229.397034,114.512093 228.495850,116.079109 
	C221.631165,128.015854 214.789505,139.966507 208.060806,151.980103 
	C207.054092,153.777481 206.674057,155.925858 205.720093,158.021149 
	C204.733963,159.009506 204.031860,159.888565 203.058167,161.009491 
	C198.722870,168.687149 194.659149,176.122971 190.396027,183.651443 
	C189.948013,184.499817 189.699417,185.255524 189.532593,186.465698 
	C189.806259,188.759293 189.998138,190.598419 190.434082,192.696594 
	C190.447433,194.470886 190.026596,195.985016 190.017685,197.501556 
	C189.969467,205.724258 190.023056,213.947525 189.706940,222.053406 
	C184.822327,215.910568 174.854172,213.812271 165.562531,216.994507 
	C163.717941,217.563553 161.970627,217.810287 160.837280,218.776886 
	C154.843384,223.889038 155.847839,230.683121 163.085449,236.451843 
	C161.644211,237.856644 160.373581,238.988495 158.629181,240.064789 
	C144.409744,239.914246 130.664078,239.819275 116.942894,239.306564 
	C116.975685,236.602158 116.984001,234.315506 117.377518,231.984741 
	C119.085251,231.728348 120.407768,231.516068 121.730293,231.303787 
	C121.837463,230.863464 121.944633,230.423141 122.051804,229.982803 
	C117.289680,227.453079 112.527557,224.923340 106.908455,221.938370 
	C106.850716,221.169006 106.694107,219.082428 106.940979,216.952652 
	C108.296402,216.624832 109.270012,216.397308 110.196518,216.045670 
	C114.079971,214.571793 115.846138,211.575531 115.967705,207.578125 
	C116.091774,203.498535 114.140808,200.579071 110.465782,198.903839 
	C106.956734,197.304260 103.310188,197.422607 100.958763,200.555817 
	C99.229752,202.859650 97.579277,206.091049 97.770050,208.775757 
	C98.107018,213.517822 101.680580,216.199844 106.397141,217.443832 
	C106.233253,219.676926 106.104820,221.464188 105.931816,223.871780 
	C102.061996,223.871780 98.417847,224.184387 94.847015,223.805664 
	C87.758682,223.053879 82.943672,226.785568 78.500031,231.577850 
	C79.345078,231.667648 80.134003,231.577469 81.243164,231.433380 
	C82.392433,231.511948 83.221466,231.644409 84.018372,232.187225 
	C83.688423,234.952713 83.390602,237.307846 82.626343,239.747375 
	C76.445618,239.807220 70.731346,239.782639 65.002808,239.447205 
	C64.557533,238.602402 64.126518,238.068466 63.695496,237.534515 
	C63.458149,238.275024 63.220806,239.015533 62.604515,239.816925 
	C60.475872,239.653244 58.726181,239.428680 56.965816,238.936295 
	C56.818035,238.433456 56.680927,238.198456 56.543816,237.963455 
	C56.419617,238.438416 56.295422,238.913361 55.890369,239.556549 
	C54.744148,239.748749 53.878780,239.772720 52.994408,239.409943 
	C52.655800,236.369888 52.336201,233.716629 52.227066,230.803024 
	C53.909473,229.954590 55.381413,229.366470 57.083855,229.068787 
	C59.476109,231.109055 61.637867,232.858902 64.972145,235.557831 
	C64.972145,232.180038 64.972145,229.554184 65.199211,226.675598 
	C71.009346,223.944626 73.592979,219.952942 72.545761,215.423370 
	C71.428604,210.591293 67.608192,207.639542 62.851780,207.933548 
	C57.749012,208.248932 54.448601,211.966873 53.548862,217.960907 
	C48.930420,217.486923 45.860641,219.010193 45.203346,223.378128 
	C44.680859,226.850220 46.203003,229.447006 49.988792,230.559097 
	C49.990860,233.890472 49.988045,236.835876 49.524651,239.832428 
	C47.231384,239.901993 45.396103,239.991684 43.566505,239.925171 
	C38.583183,239.743988 33.596008,239.282959 28.624847,239.428299 
	C27.404184,239.463974 26.238903,241.393951 25.048164,242.453033 
	C26.191511,243.293594 27.226742,244.481461 28.507622,244.880173 
	C29.876760,245.306381 31.477613,244.993866 32.977325,244.994171 
	C73.970284,245.002670 114.963234,245.009903 155.881897,245.373108 
	C154.713547,248.592911 153.619522,251.457001 152.315781,254.870117 
	C155.785553,255.041641 158.387970,255.170288 160.963654,255.675262 
	C157.591125,267.958618 160.997360,279.016266 170.198044,286.016235 
	C177.667130,291.698761 186.046616,292.435150 195.134872,290.862183 
	C197.150223,291.447205 198.935028,291.846466 200.720078,291.847473 
	C269.882874,291.886322 339.045685,291.895355 408.208466,291.862549 
	C410.149628,291.861633 412.090515,291.362885 414.355469,291.088654 
	C415.103485,291.159149 415.527527,291.237305 416.037994,291.475586 
	C416.419067,291.562073 416.713715,291.488373 417.379089,291.386047 
	C421.141418,291.139648 424.533051,290.921844 428.204834,291.025452 
	C430.278168,291.527008 432.071075,291.861267 433.864594,291.864685 
	C469.576385,291.932709 505.288177,291.962463 541.000000,292.000000 
M129.500381,200.423874 
	C128.056686,200.775482 126.530365,200.934601 125.183846,201.512604 
	C119.853088,203.800919 117.673935,209.948807 120.189667,215.283997 
	C122.681564,220.568619 128.680725,222.686752 133.826706,220.084747 
	C137.986069,217.981613 139.891998,214.437180 139.574448,209.942551 
	C139.212143,204.814453 136.198059,201.992767 129.500381,200.423874 
M144.821579,228.238358 
	C144.119186,222.640900 140.663040,219.682159 137.008240,221.989136 
	C135.214630,223.121277 133.308762,225.809586 133.400772,227.698807 
	C133.489716,229.525345 135.750473,232.035400 137.643860,232.808380 
	C140.860138,234.121445 143.278702,232.063599 144.821579,228.238358 
M25.513083,237.437729 
	C25.513083,237.437729 25.556843,237.519943 25.513083,237.437729 
z"/>
<path fill="#F3E2D3" opacity="1.000000" stroke="none" 
	d="
M541.000000,125.000000 
	C541.000000,140.354233 541.000000,155.708450 540.531372,171.528687 
	C515.095886,171.993347 490.129028,171.992020 465.096375,171.666290 
	C465.077179,170.905289 465.123810,170.468674 465.526062,170.058838 
	C476.657501,170.085632 487.433289,170.085632 498.209076,170.085632 
	C498.210327,169.393921 498.211548,168.702209 498.212769,168.010498 
	C487.439270,168.010498 476.665741,168.010498 465.940399,167.543213 
	C465.926605,153.034958 465.864655,138.994019 465.814209,124.927643 
	C465.825684,124.902214 465.881500,124.901367 466.357117,124.923630 
	C491.555176,124.963921 516.277588,124.981956 541.000000,125.000000 
z"/>
<path fill="#F2E2D3" opacity="1.000000" stroke="none" 
	d="
M541.000000,265.000000 
	C541.000000,271.021149 541.000000,277.042297 540.531494,283.545593 
	C508.376282,284.031372 476.689575,284.051361 445.002991,283.993622 
	C443.295502,283.990509 441.589203,283.335419 440.046082,282.678223 
	C444.721069,277.422302 446.575897,271.418884 447.584961,264.928955 
	C451.370667,264.914886 454.707703,264.874084 458.460602,264.887939 
	C461.250641,264.604736 463.624817,264.266846 466.311035,264.201172 
	C468.435303,264.608337 470.247192,264.855835 472.059814,264.861084 
	C495.039795,264.927673 518.019897,264.959381 541.000000,265.000000 
z"/>
<path fill="#F1E1D0" opacity="1.000000" stroke="none" 
	d="
M541.000000,210.000000 
	C541.000000,217.020950 541.000000,224.041901 540.533447,231.481201 
	C520.280151,231.888168 500.493286,231.853104 480.706543,231.886841 
	C477.068115,231.893036 473.430145,232.178223 469.421265,232.234924 
	C468.023804,232.054886 466.997040,231.974579 465.936707,231.538727 
	C465.934692,230.471542 465.966217,229.759918 466.401001,229.010620 
	C467.815063,227.806213 469.407837,226.769791 469.704773,225.443268 
	C470.191986,223.266922 469.777008,220.900177 469.854309,218.617508 
	C469.947510,215.864838 468.566071,214.768265 465.923431,214.483215 
	C465.953003,212.746246 466.023071,211.410858 466.556030,210.077667 
	C491.679260,210.053223 516.339661,210.026611 541.000000,210.000000 
z"/>
<path fill="#F1E1D2" opacity="1.000000" stroke="none" 
	d="
M541.000000,180.000000 
	C541.000000,187.020950 541.000000,194.041901 540.531616,201.513123 
	C515.392334,201.953049 490.721497,201.942703 465.977112,201.610626 
	C465.933563,200.852722 465.963501,200.416550 466.462463,199.974060 
	C487.398010,199.967758 507.864502,199.967758 528.331055,199.967758 
	C528.321899,199.293121 528.312744,198.618484 528.303589,197.943848 
	C507.561951,197.943848 486.820282,197.943848 465.991882,197.492126 
	C465.698212,192.732635 465.491272,188.424850 465.151855,183.722717 
	C465.065216,182.229660 465.111084,181.130936 465.615448,180.013184 
	C491.049286,179.996078 516.024658,179.998047 541.000000,180.000000 
z"/>
<path fill="#B5AB87" opacity="1.000000" stroke="none" 
	d="
M541.000000,124.532394 
	C516.277588,124.981956 491.555176,124.963921 466.294586,124.503098 
	C464.892395,118.689140 464.028381,113.317978 463.164368,107.946808 
	C488.797821,107.987778 514.431274,108.028748 540.532349,108.034866 
	C541.000000,113.354927 541.000000,118.709862 541.000000,124.532394 
z"/>
<path fill="#EBC771" opacity="1.000000" stroke="none" 
	d="
M541.000000,264.535339 
	C518.019897,264.959381 495.039795,264.927673 472.059814,264.861084 
	C470.247192,264.855835 468.435303,264.608337 466.299500,263.743347 
	C465.981201,259.010712 465.986450,255.008118 466.460602,251.025177 
	C491.619659,251.029892 516.309814,251.014954 541.000000,251.000000 
	C541.000000,255.356903 541.000000,259.713806 541.000000,264.535339 
z"/>
<path fill="#D8B28E" opacity="1.000000" stroke="none" 
	d="
M439.882355,282.983856 
	C441.589203,283.335419 443.295502,283.990509 445.002991,283.993622 
	C476.689575,284.051361 508.376282,284.031372 540.531494,284.013885 
	C541.000000,286.370575 541.000000,288.741119 541.000000,291.555847 
	C505.288177,291.962463 469.576385,291.932709 433.864594,291.864685 
	C432.071075,291.861267 430.278168,291.527008 428.447937,290.787476 
	C432.234680,287.813354 436.058533,285.398621 439.882355,282.983856 
z"/>
<path fill="#BCC1D6" opacity="1.000000" stroke="none" 
	d="
M541.000000,179.555832 
	C516.024658,179.998047 491.049286,179.996078 465.548950,179.569550 
	C465.070038,176.760208 465.116119,174.375443 465.162170,171.990692 
	C490.129028,171.992020 515.095886,171.993347 540.531372,171.997345 
	C541.000000,174.370560 541.000000,176.741104 541.000000,179.555832 
z"/>
<path fill="#D8B28E" opacity="1.000000" stroke="none" 
	d="
M466.050659,201.932373 
	C490.721497,201.942703 515.392334,201.953049 540.531616,201.981689 
	C541.000000,204.370560 541.000000,206.741104 541.000000,209.555847 
	C516.339661,210.026611 491.679260,210.053223 466.498077,209.627533 
	C466.001740,206.760956 466.026184,204.346664 466.050659,201.932373 
z"/>
<path fill="#D6925D" opacity="1.000000" stroke="none" 
	d="
M541.000000,236.000000 
	C541.000000,238.370560 541.000000,240.741104 540.535339,243.624954 
	C516.751099,244.125549 493.431549,244.112869 470.053101,243.650879 
	C470.002258,240.795685 470.010315,238.389755 470.485352,236.008972 
	C494.301544,236.022736 517.650757,236.011368 541.000000,236.000000 
z"/>
<path fill="#F0DECE" opacity="1.000000" stroke="none" 
	d="
M470.112000,244.100174 
	C493.431549,244.112869 516.751099,244.125549 540.535339,244.069122 
	C541.000000,246.041672 541.000000,248.083328 541.000000,250.562500 
	C516.309814,251.014954 491.619659,251.029892 466.392731,250.632706 
	C465.915771,248.897919 465.975555,247.575272 466.390991,246.204346 
	C467.868439,245.470764 468.990234,244.785477 470.112000,244.100174 
z"/>
<path fill="#F1E1D2" opacity="1.000000" stroke="none" 
	d="
M541.000000,235.666672 
	C517.650757,236.011368 494.301544,236.022736 470.419250,235.678711 
	C469.918152,234.877228 469.950165,234.431137 470.451050,233.951279 
	C494.279938,233.944992 517.639954,233.972488 541.000000,234.000000 
	C541.000000,234.444443 541.000000,234.888901 541.000000,235.666672 
z"/>
<path fill="#D6925D" opacity="1.000000" stroke="none" 
	d="
M541.000000,233.666672 
	C517.639954,233.972488 494.279938,233.944992 470.381592,233.680771 
	C469.826141,233.074234 469.809052,232.704437 469.791962,232.334625 
	C473.430145,232.178223 477.068115,231.893036 480.706543,231.886841 
	C500.493286,231.853104 520.280151,231.888168 540.533447,231.949768 
	C541.000000,232.444443 541.000000,232.888901 541.000000,233.666672 
z"/>
<path fill="#E1AA24" opacity="1.000000" stroke="none" 
	d="
M466.035309,246.252625 
	C465.975555,247.575272 465.915771,248.897919 465.923859,250.613037 
	C465.986450,255.008118 465.981201,259.010712 465.987488,263.471130 
	C463.624817,264.266846 461.250641,264.604736 458.502930,264.526093 
	C457.583954,259.775787 458.020264,255.004852 456.319580,251.185455 
	C449.672150,236.256287 438.666626,227.297455 421.110199,226.138367 
	C400.210419,224.758575 380.786438,241.500488 381.490997,264.783752 
	C331.244843,264.937317 281.456940,264.873779 231.672058,265.231049 
	C223.728546,265.288055 217.227066,264.062836 213.014023,256.542542 
	C212.942291,256.371521 212.844467,256.013702 213.108429,255.819824 
	C212.083527,251.762421 210.845001,247.881165 209.491425,244.040436 
	C208.184525,240.332214 206.758987,236.665833 205.284164,232.594223 
	C200.945755,219.954391 196.737747,207.691177 192.423599,195.465408 
	C192.024445,194.334259 190.950592,193.441193 190.190033,192.437561 
	C189.998138,190.598419 189.806259,188.759293 190.049698,186.431824 
	C202.993271,185.927017 215.501511,185.910538 228.139099,186.244202 
	C230.230270,190.555206 233.801712,188.161514 237.084061,188.783844 
	C238.363663,188.867279 239.191818,188.823395 240.008789,188.899475 
	C243.501831,189.224762 245.068451,187.911896 245.101837,184.155548 
	C245.135300,180.394638 243.322067,179.649872 240.211151,179.935165 
	C239.066391,180.040146 237.910202,180.020416 236.442657,180.000610 
	C233.025986,180.408676 228.462357,177.823227 227.551941,183.821045 
	C214.919785,183.726440 202.757614,183.642609 190.595428,183.558777 
	C194.659149,176.122971 198.722870,168.687149 203.506882,161.026611 
	C211.674210,160.805588 219.130890,161.025711 226.563065,160.695312 
	C229.156982,160.580002 231.690536,159.106735 234.481003,158.151352 
	C234.870422,157.762848 235.030487,157.476639 235.465027,156.986847 
	C236.137405,155.510086 236.535309,154.236893 237.012756,152.503174 
	C236.982422,139.966980 236.872528,127.891304 236.661865,115.535362 
	C235.982346,114.719994 235.403610,114.184891 234.636902,113.437920 
	C233.637985,112.508888 232.827026,111.791725 232.016068,111.074570 
	C234.395706,106.448135 236.775345,101.821709 239.595947,96.734512 
	C241.647598,96.076424 243.258270,95.879105 245.055084,95.959816 
	C246.436905,97.508507 247.632584,98.779182 248.836884,100.514740 
	C248.833466,119.726387 248.848724,138.473251 248.775085,157.219757 
	C248.765823,159.580017 248.288849,161.938446 247.701782,164.295349 
	C246.148636,163.787582 244.922302,163.282196 243.357758,162.637421 
	C243.357758,167.248016 243.357758,171.725311 243.357758,176.202606 
	C243.724701,176.223297 244.091660,176.243988 244.458603,176.264679 
	C245.650497,172.619720 246.842407,168.974762 248.252045,165.711060 
	C248.642487,169.025177 248.815186,171.958023 248.966766,175.336609 
	C248.946411,177.848953 248.947189,179.915543 248.935043,182.451813 
	C248.940842,192.116196 248.959564,201.310913 248.937134,211.017609 
	C248.867950,220.016571 248.816650,228.503571 248.817535,236.990570 
	C248.818756,248.724365 252.851379,252.510468 265.026672,251.881561 
	C268.032806,251.878220 270.562805,251.822372 273.402283,251.815155 
	C274.126251,251.842468 274.540833,251.821136 275.206665,251.873993 
	C275.629211,251.913956 275.800476,251.879745 276.222961,251.882355 
	C276.641388,251.892975 276.808624,251.866745 277.339172,251.891022 
	C278.432556,251.896255 279.162567,251.850952 280.271057,251.881851 
	C281.418549,251.922958 282.187592,251.887848 283.425812,251.916901 
	C289.932739,251.975967 295.970459,251.970917 302.468689,251.985931 
	C304.925110,252.003265 306.930054,251.879349 308.914917,252.026337 
	C311.852905,252.243912 313.087280,251.201569 313.048401,248.078079 
	C312.872406,233.943878 312.875244,219.807434 312.872559,205.392517 
	C312.941101,204.740479 312.950775,204.367722 313.062103,203.580170 
	C313.093445,201.465652 313.023132,199.765945 312.992035,197.594772 
	C313.008301,189.382706 312.985382,181.642105 313.037231,173.564499 
	C314.497314,171.504562 315.882629,169.781631 317.557068,168.045013 
	C318.641022,167.674774 319.435822,167.318207 320.531250,167.224716 
	C321.923767,170.481003 323.648071,173.408997 323.964996,176.482162 
	C324.490662,181.578552 324.111084,186.768295 324.102600,192.392365 
	C324.081573,207.608383 323.991028,222.351318 324.089447,237.092972 
	C324.149933,246.151535 330.080078,251.931000 339.103088,252.005386 
	C342.412903,252.032684 345.724030,251.909790 349.399292,251.910095 
	C350.498779,251.934204 351.233582,251.903656 352.423035,251.922333 
	C355.925140,251.925949 358.972534,251.880325 362.386536,251.896820 
	C363.750977,251.297913 364.748840,250.636902 365.780640,249.736237 
	C365.814575,249.496582 365.683533,249.030594 365.714752,248.699524 
	C365.697235,247.929581 365.648529,247.490738 365.698792,246.590240 
	C365.862183,233.124268 365.926514,220.119949 366.444702,207.124451 
	C369.113098,207.133286 371.327606,207.133286 373.922882,207.133286 
	C373.922882,204.120331 373.922882,201.587891 373.981262,198.675751 
	C374.982788,191.643417 378.976440,187.707855 385.553253,185.784790 
	C386.354553,185.703720 386.806366,185.599670 387.708496,185.522949 
	C412.202484,185.545135 436.246307,185.566193 460.289703,185.473175 
	C461.816650,185.467285 463.340179,184.575058 464.972076,184.062119 
	C465.078857,184.029068 465.284363,184.117065 465.284363,184.117065 
	C465.491272,188.424850 465.698212,192.732635 465.949219,197.830170 
	C465.993378,199.073410 465.993408,199.526901 465.993469,199.980377 
	C465.963501,200.416550 465.933563,200.852722 465.977112,201.610626 
	C466.026184,204.346664 466.001740,206.760956 466.035217,209.625366 
	C466.023071,211.410858 465.953003,212.746246 465.525146,214.534622 
	C458.090668,215.813385 462.032532,221.295929 461.251801,224.656784 
	C460.427155,228.206863 462.893250,229.211060 465.997711,229.048279 
	C465.966217,229.759918 465.934692,230.471542 465.554626,231.618378 
	C458.347870,233.006805 461.906647,238.352966 461.226562,241.803711 
	C460.510406,245.437515 463.094696,246.201492 466.035309,246.252625 
z"/>
<path fill="#12150E" opacity="1.000000" stroke="none" 
	d="
M248.828262,100.049850 
	C247.632584,98.779182 246.436905,97.508507 245.097473,95.770660 
	C244.953735,95.303474 245.110016,94.946114 245.355225,94.671814 
	C246.739563,92.238144 247.878693,90.078773 249.254974,87.773979 
	C249.650818,87.532532 249.809479,87.436501 249.968155,87.340462 
	C250.951523,87.448479 251.934906,87.650940 252.918274,87.650963 
	C301.651794,87.651817 350.385315,87.635323 400.002319,87.603943 
	C403.584045,87.510658 406.282288,87.434151 408.980560,87.357635 
	C414.022614,87.442192 419.064697,87.526749 424.938965,87.644806 
	C426.842926,87.690422 427.914673,87.702530 428.986420,87.714645 
	C434.019592,88.739288 439.133179,89.475487 444.068268,90.851868 
	C452.876495,93.308479 459.282043,98.756958 463.007111,107.631699 
	C464.028381,113.317978 464.892395,118.689140 465.818970,124.480835 
	C465.881500,124.901367 465.825684,124.902214 465.410004,125.023560 
	C454.379395,125.913467 454.187531,126.119217 454.177277,137.006027 
	C454.170593,144.105576 454.331818,151.209656 454.123199,158.303040 
	C453.993042,162.727783 455.581787,165.607269 460.074890,167.049316 
	C460.842346,167.147095 461.449554,167.005157 462.356598,166.748993 
	C463.075806,166.680603 463.495209,166.726440 464.021271,167.012131 
	C464.361053,167.506775 464.594177,167.761581 464.933105,168.060028 
	C465.038910,168.103653 465.232147,167.980972 465.126648,168.314514 
	C465.070923,169.109406 465.120697,169.570724 465.170471,170.032059 
	C465.123810,170.468674 465.077179,170.905289 465.096344,171.666290 
	C465.116119,174.375443 465.070038,176.760208 465.090454,179.588593 
	C465.111084,181.130936 465.065216,182.229660 465.151855,183.722717 
	C465.284363,184.117065 465.078857,184.029068 464.512024,184.027985 
	C439.900940,184.019821 415.856659,183.997238 391.812531,184.040756 
	C390.221802,184.043640 388.631989,184.550156 386.819031,184.868805 
	C386.596283,184.915207 386.143799,184.963486 386.076721,184.642532 
	C385.944916,183.889923 385.880157,183.458282 385.877869,182.685928 
	C385.900024,181.886948 385.859772,181.428665 385.884857,180.507782 
	C385.909241,164.835159 385.868256,149.625153 385.877930,133.915833 
	C385.962555,126.980232 385.996490,120.543938 386.008606,113.673676 
	C385.161896,109.361618 384.531830,105.424461 383.386078,101.643570 
	C383.067688,100.592865 381.240051,99.346100 380.072571,99.312561 
	C372.699921,99.100815 365.318207,99.205193 357.781403,99.205193 
	C357.781403,104.032707 357.781403,108.288223 357.241608,112.637238 
	C355.972595,112.730164 355.243408,112.729584 354.613770,112.293747 
	C354.713318,107.785889 354.713318,103.713287 354.713318,99.187965 
	C345.317200,99.187965 336.431732,98.993904 327.574341,99.404991 
	C326.300293,99.464119 325.161530,102.438622 323.548889,104.074280 
	C322.041321,104.043564 320.945099,104.002533 319.512268,103.994682 
	C318.499969,104.007156 317.824249,103.986458 316.696625,103.911209 
	C315.333435,103.848946 314.422180,103.841240 313.500000,103.480537 
	C312.423492,101.851860 311.400024,99.514717 310.285553,99.470505 
	C302.275452,99.152794 294.246918,99.300484 285.981262,99.300484 
	C285.981262,104.003189 285.981262,107.962502 285.674164,112.019073 
	C284.622375,112.340889 283.877686,112.565453 283.102203,112.340172 
	C283.071411,107.815826 283.071411,103.741333 283.071411,98.709732 
	C272.598022,99.195221 262.785309,99.650078 252.561905,100.052940 
	C251.043549,100.017250 249.935898,100.033554 248.828262,100.049850 
z"/>
<path fill="#231716" opacity="1.000000" stroke="none" 
	d="
M440.046082,282.678223 
	C436.058533,285.398621 432.234680,287.813354 428.167786,290.466064 
	C424.533051,290.921844 421.141418,291.139648 417.123596,291.270752 
	C416.315460,291.227905 416.133514,291.271698 415.951569,291.315460 
	C415.527527,291.237305 415.103485,291.159149 414.048767,290.893707 
	C409.314514,288.465729 405.210876,286.225037 400.970947,283.670807 
	C395.846863,278.201477 393.624054,271.874115 393.089081,264.478394 
	C393.988129,252.863281 399.220123,244.533951 409.628662,239.985077 
	C425.938263,232.857285 446.277710,243.546616 447.136292,264.902222 
	C446.575897,271.418884 444.721069,277.422302 440.046082,282.678223 
M410.321930,262.183746 
	C409.589508,271.075348 416.371735,277.115417 423.670746,274.071869 
	C428.078857,272.233765 430.688354,268.000458 430.017487,263.314392 
	C429.358337,258.710114 426.624451,255.785736 422.042206,254.875015 
	C416.884583,253.849945 413.386047,255.939774 410.321930,262.183746 
z"/>
<path fill="#D8B28E" opacity="1.000000" stroke="none" 
	d="
M401.107269,283.984344 
	C405.210876,286.225037 409.314514,288.465729 413.724823,290.901367 
	C412.090515,291.362885 410.149628,291.861633 408.208466,291.862549 
	C339.045685,291.895355 269.882874,291.886322 200.720078,291.847473 
	C198.935028,291.846466 197.150223,291.447205 195.375626,290.638092 
	C198.717133,288.009979 202.048309,285.977448 205.891357,283.974945 
	C271.304565,283.998077 336.205902,283.991211 401.107269,283.984344 
z"/>
<path fill="#241817" opacity="1.000000" stroke="none" 
	d="
M205.379486,283.944946 
	C202.048309,285.977448 198.717133,288.009979 195.145203,290.266602 
	C186.046616,292.435150 177.667130,291.698761 170.198044,286.016235 
	C160.997360,279.016266 157.591125,267.958618 161.430862,255.622375 
	C168.543472,255.233475 175.162155,255.273758 181.573212,255.544128 
	C180.294785,256.808838 179.038940,257.710968 178.186569,258.901855 
	C175.151794,263.141876 176.009857,269.097626 179.993515,272.389862 
	C184.046738,275.739594 189.969788,275.453979 193.579346,271.734711 
	C198.026199,267.152710 197.035202,260.636475 191.544159,255.271881 
	C198.948883,255.468323 205.896667,255.741013 212.844467,256.013702 
	C212.844467,256.013702 212.942291,256.371521 212.650055,256.748138 
	C214.580109,267.248260 212.405289,276.227692 205.379486,283.944946 
z"/>
<path fill="#CD960F" opacity="1.000000" stroke="none" 
	d="
M181.780838,255.314041 
	C175.162155,255.273758 168.543472,255.233475 161.457581,255.246063 
	C158.387970,255.170288 155.785553,255.041641 152.315781,254.870117 
	C153.619522,251.457001 154.713547,248.592911 156.134430,245.165909 
	C157.341843,243.108780 158.222397,241.614563 159.102951,240.120346 
	C160.373581,238.988495 161.644211,237.856644 163.368973,236.325150 
	C164.621185,235.271255 165.419266,234.617020 166.522858,233.815979 
	C173.914352,229.263031 181.637314,227.580597 190.229767,228.449524 
	C194.388138,230.017502 198.211548,231.466995 202.088989,232.753677 
	C203.101517,233.089661 204.282135,232.919022 205.385559,232.981064 
	C206.758987,236.665833 208.184525,240.332214 209.491425,244.040436 
	C210.845001,247.881165 212.083527,251.762421 213.108429,255.819824 
	C205.896667,255.741013 198.948883,255.468323 191.090729,255.199097 
	C187.380524,255.239716 184.580673,255.276886 181.780838,255.314041 
z"/>
<path fill="#FEFEFD" opacity="1.000000" stroke="none" 
	d="
M231.869034,111.376587 
	C232.827026,111.791725 233.637985,112.508888 234.551224,113.935005 
	C234.791382,127.445061 234.929260,140.246170 235.002014,153.253052 
	C234.936905,153.458832 234.950348,153.890442 234.708725,154.113800 
	C233.436386,155.433914 232.405655,156.530640 231.236511,157.622040 
	C231.098083,157.616714 230.950958,157.851517 230.555984,157.850861 
	C229.116302,157.977295 228.071579,158.104401 226.561661,158.159119 
	C219.399002,158.028442 212.701569,157.970139 206.004120,157.911850 
	C206.674057,155.925858 207.054092,153.777481 208.060806,151.980103 
	C214.789505,139.966507 221.631165,128.015854 228.495850,116.079109 
	C229.397034,114.512093 230.638260,113.140640 231.869034,111.376587 
z"/>
<path fill="#D5C174" opacity="1.000000" stroke="none" 
	d="
M158.629181,240.064789 
	C158.222397,241.614563 157.341843,243.108780 156.208740,244.810181 
	C114.963234,245.009903 73.970284,245.002670 32.977325,244.994171 
	C31.477613,244.993866 29.876760,245.306381 28.507622,244.880173 
	C27.226742,244.481461 26.191511,243.293594 25.048164,242.453033 
	C26.238903,241.393951 27.404184,239.463974 28.624847,239.428299 
	C33.596008,239.282959 38.583183,239.743988 43.566505,239.925171 
	C45.396103,239.991684 47.231384,239.901993 49.901653,239.879776 
	C51.497295,239.849579 52.255356,239.823151 53.013416,239.796707 
	C53.878780,239.772720 54.744148,239.748749 56.089722,239.501923 
	C56.569931,239.279099 56.976494,239.204117 56.976494,239.204117 
	C58.726181,239.428680 60.475872,239.653244 62.942497,239.867371 
	C64.111977,239.823990 64.564529,239.791031 65.017075,239.758057 
	C70.731346,239.782639 76.445618,239.807220 83.077469,239.833023 
	C88.601601,239.837891 93.208145,239.841522 98.245560,239.879471 
	C100.103096,239.902100 101.529762,239.890411 103.423294,239.891235 
	C108.232910,239.843964 112.575661,239.784134 116.918419,239.724304 
	C130.664078,239.819275 144.409744,239.914246 158.629181,240.064789 
z"/>
<path fill="#B9A143" opacity="1.000000" stroke="none" 
	d="
M129.871490,200.468048 
	C136.198059,201.992767 139.212143,204.814453 139.574448,209.942551 
	C139.891998,214.437180 137.986069,217.981613 133.826706,220.084747 
	C128.680725,222.686752 122.681564,220.568619 120.189667,215.283997 
	C117.673935,209.948807 119.853088,203.800919 125.183846,201.512604 
	C126.530365,200.934601 128.056686,200.775482 129.871490,200.468048 
z"/>
<path fill="#27241F" opacity="1.000000" stroke="none" 
	d="
M205.284164,232.594223 
	C204.282135,232.919022 203.101517,233.089661 202.088989,232.753677 
	C198.211548,231.466995 194.388138,230.017502 190.255035,228.010956 
	C189.990860,225.652283 190.016220,223.911453 190.041580,222.170609 
	C190.023056,213.947525 189.969467,205.724258 190.017685,197.501556 
	C190.026596,195.985016 190.447433,194.470886 190.434082,192.696594 
	C190.950592,193.441193 192.024445,194.334259 192.423599,195.465408 
	C196.737747,207.691177 200.945755,219.954391 205.284164,232.594223 
z"/>
<path fill="#241817" opacity="1.000000" stroke="none" 
	d="
M189.706940,222.053406 
	C190.016220,223.911453 189.990860,225.652283 189.940247,227.831696 
	C181.637314,227.580597 173.914352,229.263031 166.466797,233.352295 
	C166.051208,227.691711 165.997162,222.348038 165.943100,217.004364 
	C174.854172,213.812271 184.822327,215.910568 189.706940,222.053406 
z"/>
<path fill="#CA8569" opacity="1.000000" stroke="none" 
	d="
M84.050507,231.776871 
	C83.221466,231.644409 82.392433,231.511948 80.839684,231.319977 
	C79.558617,231.306290 79.001259,231.352081 78.443901,231.397888 
	C82.943672,226.785568 87.758682,223.053879 94.847015,223.805664 
	C98.417847,224.184387 102.061996,223.871780 105.931816,223.871780 
	C106.104820,221.464188 106.233253,219.676926 106.421982,217.454529 
	C106.482285,217.019363 106.537506,216.995865 106.537506,216.995865 
	C106.694107,219.082428 106.850716,221.169006 106.908455,221.938370 
	C112.527557,224.923340 117.289680,227.453079 122.051804,229.982803 
	C121.944633,230.423141 121.837463,230.863464 121.730293,231.303787 
	C120.407768,231.516068 119.085251,231.728348 116.928528,231.867188 
	C111.476593,231.715546 106.858871,231.637360 101.902283,231.412689 
	C100.701324,231.507828 99.839233,231.749435 98.990356,231.996918 
	C99.003571,232.002792 99.000389,231.974045 98.817108,231.877457 
	C98.633835,231.780869 98.219658,231.769379 97.742599,231.732208 
	C92.860527,231.722305 88.455521,231.749588 84.050507,231.776871 
z"/>
<path fill="#B8A662" opacity="1.000000" stroke="none" 
	d="
M53.959549,217.950699 
	C54.448601,211.966873 57.749012,208.248932 62.851780,207.933548 
	C67.608192,207.639542 71.428604,210.591293 72.545761,215.423370 
	C73.592979,219.952942 71.009346,223.944626 64.822922,226.691956 
	C62.176182,226.338272 60.132801,225.715530 57.787895,224.911469 
	C56.310764,222.470322 55.135155,220.210510 53.959549,217.950699 
z"/>
<path fill="#DEA75C" opacity="1.000000" stroke="none" 
	d="
M106.940979,216.952652 
	C106.537506,216.995865 106.482285,217.019363 106.457443,217.008667 
	C101.680580,216.199844 98.107018,213.517822 97.770050,208.775757 
	C97.579277,206.091049 99.229752,202.859650 100.958763,200.555817 
	C103.310188,197.422607 106.956734,197.304260 110.465782,198.903839 
	C114.140808,200.579071 116.091774,203.498535 115.967705,207.578125 
	C115.846138,211.575531 114.079971,214.571793 110.196518,216.045670 
	C109.270012,216.397308 108.296402,216.624832 106.940979,216.952652 
z"/>
<path fill="#FCFBFA" opacity="1.000000" stroke="none" 
	d="
M165.562531,216.994507 
	C165.997162,222.348038 166.051208,227.691711 166.161301,233.499084 
	C165.419266,234.617020 164.621185,235.271255 163.539566,236.052185 
	C155.847839,230.683121 154.843384,223.889038 160.837280,218.776886 
	C161.970627,217.810287 163.717941,217.563553 165.562531,216.994507 
z"/>
<path fill="#D4C68D" opacity="1.000000" stroke="none" 
	d="
M53.548862,217.960907 
	C55.135155,220.210510 56.310764,222.470322 57.711876,225.228622 
	C57.576038,226.744202 57.214695,227.761276 56.853355,228.778366 
	C55.381413,229.366470 53.909473,229.954590 51.969166,230.692749 
	C50.995171,230.619568 50.489540,230.396362 49.983913,230.173141 
	C46.203003,229.447006 44.680859,226.850220 45.203346,223.378128 
	C45.860641,219.010193 48.930420,217.486923 53.548862,217.960907 
z"/>
<path fill="#A7AABF" opacity="1.000000" stroke="none" 
	d="
M245.110016,94.946114 
	C245.110016,94.946114 244.953735,95.303474 244.911346,95.492630 
	C243.258270,95.879105 241.647598,96.076424 239.739990,96.369347 
	C236.974075,95.280663 234.488556,94.129364 232.041534,92.901367 
	C230.172043,91.963196 228.351303,90.927933 226.508881,89.935852 
	C227.088608,88.992012 227.668350,88.048164 228.248077,87.104317 
	C233.238495,87.104317 238.228928,87.104317 243.723740,87.309052 
	C244.163635,87.695328 244.099152,87.876884 244.100525,88.448105 
	C244.480927,90.873871 244.795471,92.909996 245.110016,94.946114 
z"/>
<path fill="#F9F4F0" opacity="1.000000" stroke="none" 
	d="
M84.018372,232.187225 
	C88.455521,231.749588 92.860527,231.722305 97.713104,232.051895 
	C98.162460,232.621841 98.164246,232.834915 98.091026,233.470978 
	C97.948914,235.877701 97.881798,237.861435 97.814690,239.845154 
	C93.208145,239.841522 88.601601,239.837891 83.543922,239.748611 
	C83.390602,237.307846 83.688423,234.952713 84.018372,232.187225 
z"/>
<path fill="#B8A662" opacity="1.000000" stroke="none" 
	d="
M144.748260,228.620453 
	C143.278702,232.063599 140.860138,234.121445 137.643860,232.808380 
	C135.750473,232.035400 133.489716,229.525345 133.400772,227.698807 
	C133.308762,225.809586 135.214630,223.121277 137.008240,221.989136 
	C140.663040,219.682159 144.119186,222.640900 144.748260,228.620453 
z"/>
<path fill="#F9F4F0" opacity="1.000000" stroke="none" 
	d="
M102.241142,231.559174 
	C106.858871,231.637360 111.476593,231.715546 116.543320,231.911285 
	C116.984001,234.315506 116.975685,236.602158 116.942894,239.306564 
	C112.575661,239.784134 108.232910,239.843964 103.391312,239.484497 
	C102.607903,236.968704 102.323334,234.872208 102.069023,232.571716 
	C102.154839,232.099670 102.202126,231.830139 102.241142,231.559174 
z"/>
<path fill="#241817" opacity="1.000000" stroke="none" 
	d="
M230.950958,157.851517 
	C230.950958,157.851517 231.098083,157.616714 231.670502,157.700241 
	C232.827377,157.854111 233.411835,157.924469 234.060364,158.059280 
	C234.124435,158.123749 234.251648,158.253632 234.251648,158.253632 
	C231.690536,159.106735 229.156982,160.580002 226.563065,160.695312 
	C219.130890,161.025711 211.674210,160.805588 203.778473,160.784760 
	C204.031860,159.888565 204.733963,159.009506 205.720093,158.021149 
	C212.701569,157.970139 219.399002,158.028442 226.810394,158.364777 
	C228.666550,158.379028 229.808746,158.115280 230.950958,157.851517 
z"/>
<path fill="#3F3522" opacity="1.000000" stroke="none" 
	d="
M228.009766,185.894058 
	C215.501511,185.910538 202.993271,185.927017 189.967926,185.977371 
	C189.699417,185.255524 189.948013,184.499817 190.396027,183.651443 
	C202.757614,183.642609 214.919785,183.726440 227.663651,184.157928 
	C228.166809,184.968430 228.088287,185.431244 228.009766,185.894058 
z"/>
<path fill="#F0DECE" opacity="1.000000" stroke="none" 
	d="
M57.083855,229.068787 
	C57.214695,227.761276 57.576038,226.744202 58.013397,225.409943 
	C60.132801,225.715530 62.176182,226.338272 64.595856,226.944656 
	C64.972145,229.554184 64.972145,232.180038 64.972145,235.557831 
	C61.637867,232.858902 59.476109,231.109055 57.083855,229.068787 
z"/>
<path fill="#F0DECE" opacity="1.000000" stroke="none" 
	d="
M49.988792,230.559097 
	C50.489540,230.396362 50.995171,230.619568 51.758698,230.953064 
	C52.336201,233.716629 52.655800,236.369888 52.994408,239.409943 
	C52.255356,239.823151 51.497295,239.849579 50.362232,239.828644 
	C49.988045,236.835876 49.990860,233.890472 49.988792,230.559097 
z"/>
<path fill="#FCEFDE" opacity="1.000000" stroke="none" 
	d="
M408.808594,87.051346 
	C406.282288,87.434151 403.584045,87.510658 400.451721,87.461739 
	C402.890656,87.139221 405.763611,86.942131 408.808594,87.051346 
z"/>
<path fill="#FCEFDE" opacity="1.000000" stroke="none" 
	d="
M244.034653,88.058449 
	C244.099152,87.876884 244.163635,87.695328 244.195099,87.225937 
	C246.001862,86.882210 247.841675,86.826324 249.824814,87.055450 
	C249.809479,87.436501 249.650818,87.532532 248.845337,87.672974 
	C246.810577,87.831078 245.422607,87.944763 244.034653,88.058449 
z"/>
<path fill="#FCEFDE" opacity="1.000000" stroke="none" 
	d="
M428.899292,87.419235 
	C427.914673,87.702530 426.842926,87.690422 425.394623,87.532997 
	C426.282776,87.299728 427.547485,87.211769 428.899292,87.419235 
z"/>
<path fill="#F0DECE" opacity="1.000000" stroke="none" 
	d="
M65.002808,239.447205 
	C64.564529,239.791031 64.111977,239.823990 63.321449,239.806519 
	C63.220806,239.015533 63.458149,238.275024 63.695496,237.534515 
	C64.126518,238.068466 64.557533,238.602402 65.002808,239.447205 
z"/>
<path fill="#E9CEB6" opacity="1.000000" stroke="none" 
	d="
M78.500031,231.577850 
	C79.001259,231.352081 79.558617,231.306290 80.519455,231.373901 
	C80.134003,231.577469 79.345078,231.667648 78.500031,231.577850 
z"/>
<path fill="#F0DECE" opacity="1.000000" stroke="none" 
	d="
M56.965816,238.936295 
	C56.976494,239.204117 56.569931,239.279099 56.370579,239.333710 
	C56.295422,238.913361 56.419617,238.438416 56.543816,237.963455 
	C56.680927,238.198456 56.818035,238.433456 56.965816,238.936295 
z"/>
<path fill="#F0DECE" opacity="1.000000" stroke="none" 
	d="
M25.534962,237.478836 
	C25.556843,237.519943 25.513083,237.437729 25.534962,237.478836 
z"/>
<path fill="#D8B28E" opacity="1.000000" stroke="none" 
	d="
M416.037994,291.475586 
	C416.133514,291.271698 416.315460,291.227905 416.752869,291.299377 
	C416.713715,291.488373 416.419067,291.562073 416.037994,291.475586 
z"/>
<path fill="#8E93AD" opacity="1.000000" stroke="none" 
	d="
M459.914612,166.809601 
	C455.581787,165.607269 453.993042,162.727783 454.123199,158.303040 
	C454.331818,151.209656 454.170593,144.105576 454.177277,137.006027 
	C454.187531,126.119217 454.379395,125.913467 465.398499,125.048981 
	C465.864655,138.994019 465.926605,153.034958 465.775513,167.537750 
	C465.562500,167.999573 465.232147,167.980972 465.232147,167.980972 
	C465.232147,167.980972 465.038910,168.103653 464.993286,167.732422 
	C464.603271,167.164902 464.258942,166.968597 463.914581,166.772278 
	C463.495209,166.726440 463.075806,166.680603 462.004852,166.660767 
	C460.873718,166.727707 460.394165,166.768661 459.914612,166.809601 
z"/>
<path fill="#BCC1D6" opacity="1.000000" stroke="none" 
	d="
M465.126648,168.314514 
	C465.232147,167.980972 465.562500,167.999573 465.727356,168.005035 
	C476.665741,168.010498 487.439270,168.010498 498.212769,168.010498 
	C498.211548,168.702209 498.210327,169.393921 498.209076,170.085632 
	C487.433289,170.085632 476.657501,170.085632 465.526093,170.058838 
	C465.120697,169.570724 465.070923,169.109406 465.126648,168.314514 
z"/>
<path fill="#ECB93C" opacity="1.000000" stroke="none" 
	d="
M447.584961,264.928955 
	C446.277710,243.546616 425.938263,232.857285 409.628662,239.985077 
	C399.220123,244.533951 393.988129,252.863281 392.630768,264.488556 
	C388.706085,264.828186 385.328156,264.767029 381.950226,264.705902 
	C380.786438,241.500488 400.210419,224.758575 421.110199,226.138367 
	C438.666626,227.297455 449.672150,236.256287 456.319580,251.185455 
	C458.020264,255.004852 457.583954,259.775787 458.087097,264.471405 
	C454.707703,264.874084 451.370667,264.914886 447.584961,264.928955 
z"/>
<path fill="#BB480F" opacity="1.000000" stroke="none" 
	d="
M466.390991,246.204346 
	C463.094696,246.201492 460.510406,245.437515 461.226562,241.803711 
	C461.906647,238.352966 458.347870,233.006805 465.588135,231.973907 
	C466.997040,231.974579 468.023804,232.054886 469.421265,232.234924 
	C469.809052,232.704437 469.826141,233.074234 469.912720,233.714554 
	C469.950165,234.431137 469.918152,234.877228 469.952271,235.653564 
	C470.010315,238.389755 470.002258,240.795685 470.053101,243.650879 
	C468.990234,244.785477 467.868439,245.470764 466.390991,246.204346 
z"/>
<path fill="#BB480F" opacity="1.000000" stroke="none" 
	d="
M466.401001,229.010620 
	C462.893250,229.211060 460.427155,228.206863 461.251801,224.656784 
	C462.032532,221.295929 458.090668,215.813385 465.565674,214.936218 
	C468.566071,214.768265 469.947510,215.864838 469.854309,218.617508 
	C469.777008,220.900177 470.191986,223.266922 469.704773,225.443268 
	C469.407837,226.769791 467.815063,227.806213 466.401001,229.010620 
z"/>
<path fill="#D8B28E" opacity="1.000000" stroke="none" 
	d="
M466.462463,199.974060 
	C465.993408,199.526901 465.993378,199.073410 466.035980,198.281891 
	C486.820282,197.943848 507.561951,197.943848 528.303589,197.943848 
	C528.312744,198.618484 528.321899,199.293121 528.331055,199.967758 
	C507.864502,199.967758 487.398010,199.967758 466.462463,199.974060 
z"/>
<path fill="#F2E2D2" opacity="1.000000" stroke="none" 
	d="
M381.490997,264.783752 
	C385.328156,264.767029 388.706085,264.828186 392.542328,264.879181 
	C393.624054,271.874115 395.846863,278.201477 400.970947,283.670807 
	C336.205902,283.991211 271.304565,283.998077 205.891342,283.974915 
	C212.405289,276.227692 214.580109,267.248260 212.721802,256.919159 
	C217.227066,264.062836 223.728546,265.288055 231.672058,265.231049 
	C281.456940,264.873779 331.244843,264.937317 381.490997,264.783752 
z"/>
<path fill="#BB480F" opacity="1.000000" stroke="none" 
	d="
M385.827271,134.415131 
	C385.868256,149.625153 385.909241,164.835159 385.445007,180.516617 
	C379.098328,181.414505 373.256866,181.840942 367.415375,182.267395 
	C367.431976,182.520462 367.448578,182.773544 367.465149,183.026627 
	C373.581909,183.026627 379.698639,183.026627 385.815399,183.026627 
	C385.880157,183.458282 385.944916,183.889923 385.877686,184.722321 
	C385.490631,185.272842 385.309967,185.485779 385.203796,185.761841 
	C378.976440,187.707855 374.982788,191.643417 373.552856,198.652618 
	C365.749939,199.023895 365.749939,199.023895 365.990845,207.115616 
	C365.926514,220.119949 365.862183,233.124268 365.401672,246.484802 
	C359.975311,237.771774 354.945038,228.702530 349.914795,219.633286 
	C349.702118,219.742538 349.489410,219.851807 349.276733,219.961060 
	C353.524475,230.585602 357.772186,241.210144 362.019958,251.834702 
	C358.972534,251.880325 355.925140,251.925949 352.419922,251.536545 
	C349.617615,241.731918 347.273071,232.362320 344.928528,222.992722 
	C344.587036,223.068954 344.245544,223.145187 343.904053,223.221420 
	C345.614227,232.766083 347.324402,242.310745 349.034546,251.855408 
	C345.724030,251.909790 342.412903,252.032684 339.103088,252.005386 
	C330.080078,251.931000 324.149933,246.151535 324.089447,237.092972 
	C323.991028,222.351318 324.081573,207.608383 324.409973,192.268707 
	C330.561859,189.066650 336.217377,185.880524 342.279327,184.015656 
	C348.731720,182.030685 355.605530,181.460129 362.230042,179.979752 
	C373.439270,177.474884 375.044525,175.139008 373.739471,163.903885 
	C375.982178,160.779297 378.213989,157.948425 380.449219,155.120255 
	C385.240631,149.057800 385.046692,143.697327 379.592010,137.233368 
	C378.745117,138.733032 378.101898,140.246277 377.136505,141.514221 
	C373.680969,146.052704 370.116241,150.508072 366.370422,154.676147 
	C365.674591,152.620651 365.201202,150.883865 364.651306,148.832855 
	C364.029175,146.070816 363.483582,143.622986 363.293518,141.141388 
	C364.727692,140.806473 365.806366,140.505325 367.178986,140.038467 
	C368.357971,138.571106 369.242981,137.269470 370.368744,135.730957 
	C372.027008,133.985474 373.444550,132.476852 375.218353,131.086731 
	C378.992157,132.275192 382.409729,133.345154 385.827271,134.415131 
M346.511353,215.792053 
	C347.153778,216.285172 347.796204,216.778290 348.438599,217.271408 
	C348.711548,217.014847 348.984467,216.758286 349.257416,216.501724 
	C348.441925,215.519943 347.626434,214.538162 346.810944,213.556366 
	C346.621643,214.108734 346.432312,214.661102 346.511353,215.792053 
z"/>
<path fill="#9B8941" opacity="1.000000" stroke="none" 
	d="
M312.962463,173.901489 
	C312.985382,181.642105 313.008301,189.382706 312.526855,197.599487 
	C299.052734,198.069946 286.083038,198.064240 272.648560,198.076660 
	C269.250793,198.094772 266.317841,198.094772 262.039032,198.094772 
	C265.498505,212.929047 268.769897,226.957031 272.037476,241.384827 
	C272.410614,244.176941 272.787567,246.569260 273.126648,249.312347 
	C273.090118,250.364273 273.091461,251.065399 273.092834,251.766525 
	C270.562805,251.822372 268.032806,251.878220 264.958374,251.558990 
	C263.595703,249.023438 262.778717,246.862534 261.958954,244.702667 
	C257.632446,233.303497 253.305252,221.904617 248.978287,210.505630 
	C248.959564,201.310913 248.940842,192.116196 249.278503,182.455643 
	C250.742416,181.836151 251.849945,181.682495 253.383423,181.387115 
	C264.890259,179.800171 275.971191,178.354935 287.474823,176.952667 
	C296.252502,175.964264 304.607483,174.932892 312.962463,173.901489 
z"/>
<path fill="#FCFBFA" opacity="1.000000" stroke="none" 
	d="
M313.037231,173.564514 
	C304.607483,174.932892 296.252502,175.964264 287.450531,176.502808 
	C286.445099,169.240875 285.886627,162.471756 285.271088,155.010605 
	C282.521362,157.201889 280.781525,158.588409 278.842194,159.704269 
	C275.769440,157.601822 272.896179,155.770035 270.021393,153.565659 
	C270.379822,152.103729 270.650360,150.974625 271.114288,149.931534 
	C273.969910,143.511093 279.121704,137.445786 274.010803,129.847137 
	C273.706848,129.395264 273.990662,128.548050 274.315643,127.776001 
	C276.003662,125.115776 277.377045,122.564346 279.135437,120.071091 
	C294.164215,124.325127 305.872833,132.324921 312.869934,146.399933 
	C312.387665,150.593887 312.284027,154.471436 311.943695,158.328125 
	C311.610718,162.101013 311.971527,165.058365 317.058594,163.592819 
	C317.146881,165.475998 317.207397,166.767349 317.267944,168.058685 
	C315.882629,169.781631 314.497314,171.504562 313.037231,173.564514 
z"/>
<path fill="#E9CEB6" opacity="1.000000" stroke="none" 
	d="
M274.000977,127.884811 
	C273.990662,128.548050 273.706848,129.395264 274.010803,129.847137 
	C279.121704,137.445786 273.969910,143.511093 271.114288,149.931534 
	C270.650360,150.974625 270.379822,152.103729 269.763123,153.781219 
	C262.666870,161.209869 255.827377,168.050385 248.987915,174.890900 
	C248.815186,171.958023 248.642487,169.025177 248.238800,165.545334 
	C248.038467,164.765533 248.045380,164.531982 248.028595,164.297714 
	C248.288849,161.938446 248.765823,159.580017 248.775085,157.219757 
	C248.848724,138.473251 248.833466,119.726387 248.836884,100.514740 
	C249.935898,100.033554 251.043549,100.017250 252.603760,100.500763 
	C253.635437,105.296227 250.780319,110.736359 256.894287,113.407074 
	C255.905136,115.266617 255.117126,116.839485 254.329117,118.412346 
	C256.104156,118.588264 257.876740,118.804245 259.655884,118.912643 
	C260.114716,118.940582 260.594177,118.630379 261.148102,118.851082 
	C262.742188,121.890274 264.252350,124.553894 266.015808,127.664345 
	C267.999023,125.851944 269.051483,124.890114 270.409424,123.649124 
	C271.721558,125.196556 272.861267,126.540680 274.000977,127.884811 
M252.807449,160.309250 
	C252.892365,161.875778 252.977280,163.442291 253.131927,166.295471 
	C255.508881,164.516663 258.140137,163.518784 258.246857,162.299850 
	C258.713409,156.971085 258.447632,151.578217 258.447632,145.970795 
	C253.299332,147.624786 250.524765,155.430130 252.807449,160.309250 
z"/>
<path fill="#EBCFB7" opacity="1.000000" stroke="none" 
	d="
M282.956635,251.852753 
	C282.187592,251.887848 281.418549,251.922958 280.018677,251.606628 
	C278.925812,250.255249 278.068726,249.258102 278.061646,248.254929 
	C277.972015,235.597382 278.045593,222.938736 277.974670,210.280945 
	C277.959198,207.517181 279.363647,206.939743 281.724304,206.978149 
	C286.553101,207.056717 291.395081,207.199310 296.210724,206.934799 
	C299.902863,206.731979 301.177979,207.976089 301.110352,211.732880 
	C301.025085,216.470703 301.632233,221.220993 302.021301,226.383209 
	C302.061432,228.214279 302.020966,229.628006 301.513733,231.037781 
	C295.142334,231.033813 289.237762,231.033813 282.956635,231.033813 
	C282.956635,238.341110 282.956635,245.096924 282.956635,251.852753 
z"/>
<path fill="#C6910C" opacity="1.000000" stroke="none" 
	d="
M301.980499,231.041748 
	C302.020966,229.628006 302.061432,228.214279 302.081787,225.920929 
	C302.093658,218.646698 302.125671,212.252075 302.436340,205.741333 
	C303.116211,205.592636 303.517395,205.560089 304.201721,205.609558 
	C304.671783,205.630753 304.858673,205.569931 305.477142,205.533936 
	C308.210419,205.596466 310.512054,205.634140 312.813721,205.671799 
	C312.875244,219.807434 312.872406,233.943878 313.048401,248.078079 
	C313.087280,251.201569 311.852905,252.243912 308.914917,252.026337 
	C306.930054,251.879349 304.925110,252.003265 302.537689,251.524963 
	C302.090973,244.376541 302.035736,237.709137 301.980499,231.041748 
z"/>
<path fill="#F0DECE" opacity="1.000000" stroke="none" 
	d="
M373.730133,164.198822 
	C375.044525,175.139008 373.439270,177.474884 362.230042,179.979752 
	C355.605530,181.460129 348.731720,182.030685 342.279327,184.015656 
	C336.217377,185.880524 330.561859,189.066650 324.420166,191.795074 
	C324.111084,186.768295 324.490662,181.578552 323.964996,176.482162 
	C323.648071,173.408997 321.923767,170.481003 320.727539,166.787613 
	C320.662201,163.342087 320.406738,160.543655 320.887146,157.877853 
	C321.075409,156.833130 322.913269,156.085693 323.999512,155.655106 
	C325.382385,160.740891 320.463470,167.271744 328.180756,170.023056 
	C328.392883,170.098709 328.629852,170.628860 328.567657,170.874084 
	C326.574951,178.727371 330.592102,177.471588 335.296906,175.401611 
	C335.727295,175.212234 336.506256,175.815063 336.878784,176.312439 
	C333.173279,177.953506 329.712311,179.332153 326.251373,180.710815 
	C326.168884,181.203354 326.086395,181.695877 326.003906,182.188416 
	C327.691071,182.942764 329.644714,184.676331 331.024353,184.300827 
	C345.719696,180.301300 359.600342,174.544189 371.411255,164.112976 
	C372.406494,164.147537 373.068329,164.173187 373.730133,164.198822 
z"/>
<path fill="#12150E" opacity="1.000000" stroke="none" 
	d="
M301.513733,231.037781 
	C302.035736,237.709137 302.090973,244.376541 302.077209,251.504898 
	C295.970459,251.970917 289.932739,251.975967 283.425812,251.916901 
	C282.956635,245.096924 282.956635,238.341110 282.956635,231.033813 
	C289.237762,231.033813 295.142334,231.033813 301.513733,231.037781 
z"/>
<path fill="#1B1D16" opacity="1.000000" stroke="none" 
	d="
M323.999878,155.202881 
	C322.913269,156.085693 321.075409,156.833130 320.887146,157.877853 
	C320.406738,160.543655 320.662201,163.342087 320.426941,166.524551 
	C319.435822,167.318207 318.641022,167.674774 317.557068,168.045013 
	C317.207397,166.767349 317.146881,165.475998 317.058594,163.592819 
	C311.971527,165.058365 311.610718,162.101013 311.943695,158.328125 
	C312.284027,154.471436 312.387665,150.593887 313.220856,146.471054 
	C314.559113,146.189209 315.271484,146.161758 316.396362,146.083099 
	C317.010834,144.680466 317.212769,143.329071 317.830688,141.949554 
	C318.798340,141.844467 319.350067,141.767502 320.300903,141.675323 
	C324.059570,141.836548 327.419159,142.012985 330.776062,142.587067 
	C330.792572,144.566727 330.811768,146.148773 330.681885,148.082214 
	C329.665771,150.564514 328.798737,152.695419 327.602386,154.845367 
	C326.848297,154.975327 326.423492,155.086258 325.667786,155.125183 
	C324.891174,155.103088 324.445526,155.152985 323.999878,155.202881 
z"/>
<path fill="#E9CEB6" opacity="1.000000" stroke="none" 
	d="
M248.937134,211.017609 
	C253.305252,221.904617 257.632446,233.303497 261.958954,244.702667 
	C262.778717,246.862534 263.595703,249.023438 264.482239,251.506470 
	C252.851379,252.510468 248.818756,248.724365 248.817535,236.990570 
	C248.816650,228.503571 248.867950,220.016571 248.937134,211.017609 
z"/>
<path fill="#AF7942" opacity="1.000000" stroke="none" 
	d="
M248.966766,175.336624 
	C255.827377,168.050385 262.666870,161.209869 269.764587,154.153809 
	C272.896179,155.770035 275.769440,157.601822 278.676086,159.995773 
	C274.351807,164.551285 270.152985,168.738342 265.588745,172.479630 
	C261.591522,175.756119 257.183838,178.531876 252.957489,181.528824 
	C251.849945,181.682495 250.742416,181.836151 249.291412,181.985977 
	C248.947189,179.915543 248.946411,177.848953 248.966766,175.336624 
z"/>
<path fill="#171811" opacity="1.000000" stroke="none" 
	d="
M273.113312,198.058563 
	C286.083038,198.064240 299.052734,198.069946 312.487671,198.070923 
	C313.023132,199.765945 313.093445,201.465652 312.596130,203.583679 
	C301.904907,204.000824 291.778229,203.867401 281.660004,204.099838 
	C279.386353,204.152069 277.142029,205.482559 274.579224,206.090607 
	C273.848541,205.939758 273.422821,205.922897 272.665405,205.692749 
	C272.593597,203.005844 272.853455,200.532196 273.113312,198.058563 
z"/>
<path fill="#050702" opacity="1.000000" stroke="none" 
	d="
M387.041748,184.822418 
	C388.631989,184.550156 390.221802,184.043640 391.812531,184.040756 
	C415.856659,183.997238 439.900940,184.019821 464.405212,184.061035 
	C463.340179,184.575058 461.816650,185.467285 460.289703,185.473175 
	C436.246307,185.566193 412.202484,185.545135 387.686096,185.344513 
	C387.213470,185.138748 387.041748,184.822418 387.041748,184.822418 
z"/>
<path fill="#F0DECE" opacity="1.000000" stroke="none" 
	d="
M302.157654,205.857452 
	C302.125671,212.252075 302.093658,218.646698 302.001160,225.503601 
	C301.632233,221.220993 301.025085,216.470703 301.110352,211.732880 
	C301.177979,207.976089 299.902863,206.731979 296.210724,206.934799 
	C291.395081,207.199310 286.553101,207.056717 281.724304,206.978149 
	C279.363647,206.939743 277.959198,207.517181 277.974670,210.280945 
	C278.045593,222.938736 277.972015,235.597382 278.061646,248.254929 
	C278.068726,249.258102 278.925812,250.255249 279.640228,251.530426 
	C279.162567,251.850952 278.432556,251.896255 277.338562,251.581970 
	C276.765137,250.454483 276.555664,249.686584 276.313599,248.456436 
	C276.296082,235.022186 276.311127,222.050201 276.534363,208.814941 
	C276.788544,207.659454 276.834503,206.767227 277.340820,205.743652 
	C284.169434,205.577972 290.537689,205.543640 297.204956,205.623260 
	C297.701904,205.657639 297.899841,205.578049 298.503906,205.549255 
	C299.992584,205.685837 301.075104,205.771652 302.157654,205.857452 
z"/>
<path fill="#050702" opacity="1.000000" stroke="none" 
	d="
M296.905945,205.509308 
	C290.537689,205.543640 284.169434,205.577972 277.011169,205.911224 
	C276.256134,207.166153 276.291138,208.122177 276.326172,209.078201 
	C276.311127,222.050201 276.296082,235.022186 276.169128,248.801468 
	C276.028748,250.354340 276.000275,251.099930 275.971771,251.845520 
	C275.800476,251.879745 275.629211,251.913956 275.231201,251.467575 
	C274.897064,249.631012 274.789581,248.275070 274.713440,246.513031 
	C274.718781,234.103073 274.692841,222.099213 274.781128,209.799896 
	C274.822479,209.306244 274.749542,209.108047 274.710571,208.574295 
	C274.791077,207.567352 274.837646,206.895966 274.884216,206.224579 
	C277.142029,205.482559 279.386353,204.152069 281.660004,204.099838 
	C291.778229,203.867401 301.904907,204.000824 312.494476,203.998474 
	C312.950775,204.367722 312.941101,204.740479 312.872559,205.392517 
	C310.512054,205.634140 308.210419,205.596466 305.359436,205.415604 
	C304.512939,205.357452 304.215759,205.442490 303.918579,205.527527 
	C303.517395,205.560089 303.116211,205.592636 302.436340,205.741333 
	C301.075104,205.771652 299.992584,205.685837 298.400696,205.375366 
	C297.562897,205.270248 297.234406,205.389771 296.905945,205.509308 
z"/>
<path fill="#A93803" opacity="1.000000" stroke="none" 
	d="
M362.386505,251.896820 
	C357.772186,241.210144 353.524475,230.585602 349.276733,219.961060 
	C349.489410,219.851807 349.702118,219.742538 349.914795,219.633286 
	C354.945038,228.702530 359.975311,237.771774 365.302673,246.946442 
	C365.648529,247.490738 365.697235,247.929581 365.618683,248.805801 
	C365.378784,249.545670 365.463898,249.789917 365.746735,249.975891 
	C364.748840,250.636902 363.750977,251.297913 362.386505,251.896820 
z"/>
<path fill="#F0DECE" opacity="1.000000" stroke="none" 
	d="
M228.139114,186.244202 
	C228.088287,185.431244 228.166809,184.968430 228.133606,184.168732 
	C228.462357,177.823227 233.025986,180.408676 236.443390,180.440353 
	C236.716278,183.528580 236.671860,186.120148 236.627441,188.711700 
	C233.801712,188.161514 230.230270,190.555206 228.139114,186.244202 
z"/>
<path fill="#BB480F" opacity="1.000000" stroke="none" 
	d="
M237.084045,188.783844 
	C236.671860,186.120148 236.716278,183.528580 236.759949,180.497284 
	C237.910202,180.020416 239.066391,180.040146 240.211151,179.935165 
	C243.322067,179.649872 245.135300,180.394638 245.101837,184.155548 
	C245.068451,187.911896 243.501831,189.224762 240.008789,188.899475 
	C239.191818,188.823395 238.363663,188.867279 237.084045,188.783844 
z"/>
<path fill="#12150E" opacity="1.000000" stroke="none" 
	d="
M366.444733,207.124451 
	C365.749939,199.023895 365.749939,199.023895 373.494507,199.032318 
	C373.922882,201.587891 373.922882,204.120331 373.922882,207.133286 
	C371.327606,207.133286 369.113098,207.133286 366.444733,207.124451 
z"/>
<path fill="#241817" opacity="1.000000" stroke="none" 
	d="
M247.701782,164.295349 
	C248.045380,164.531982 248.038467,164.765533 248.021057,165.164062 
	C246.842407,168.974762 245.650497,172.619720 244.458603,176.264679 
	C244.091660,176.243988 243.724701,176.223297 243.357758,176.202606 
	C243.357758,171.725311 243.357758,167.248016 243.357758,162.637421 
	C244.922302,163.282196 246.148636,163.787582 247.701782,164.295349 
z"/>
<path fill="#A93803" opacity="1.000000" stroke="none" 
	d="
M349.399292,251.910095 
	C347.324402,242.310745 345.614227,232.766083 343.904053,223.221420 
	C344.245544,223.145187 344.587036,223.068954 344.928528,222.992722 
	C347.273071,232.362320 349.617615,241.731918 351.965271,251.487305 
	C351.233582,251.903656 350.498779,251.934204 349.399292,251.910095 
z"/>
<path fill="#7A756B" opacity="1.000000" stroke="none" 
	d="
M235.067139,153.047272 
	C234.929260,140.246170 234.791382,127.445061 234.739197,114.146873 
	C235.403610,114.184891 235.982346,114.719994 236.397430,115.879791 
	C236.079971,128.652756 235.926163,140.801025 235.595947,152.973053 
	C235.419540,152.996826 235.067123,153.047272 235.067139,153.047272 
z"/>
<path fill="#050702" opacity="1.000000" stroke="none" 
	d="
M235.772369,152.949295 
	C235.926163,140.801025 236.079971,128.652756 236.498199,116.160065 
	C236.872528,127.891304 236.982422,139.966980 236.722504,152.502930 
	C236.159256,152.958572 235.965820,152.953934 235.772369,152.949295 
z"/>
<path fill="#979388" opacity="1.000000" stroke="none" 
	d="
M274.682129,246.919113 
	C274.789581,248.275070 274.897064,249.631012 274.979950,251.393402 
	C274.540833,251.821136 274.126251,251.842468 273.402283,251.815155 
	C273.091461,251.065399 273.090118,250.364273 273.342346,249.162079 
	C273.958008,248.080399 274.320068,247.499756 274.682129,246.919113 
z"/>
<path fill="#241817" opacity="1.000000" stroke="none" 
	d="
M235.595947,152.973053 
	C235.965820,152.953934 236.159256,152.958572 236.642944,152.963455 
	C236.535309,154.236893 236.137405,155.510086 235.417480,156.939896 
	C235.095444,157.096527 235.001678,157.001282 234.976883,156.612579 
	C234.951508,155.446075 234.950928,154.668259 234.950348,153.890442 
	C234.950348,153.890442 234.936905,153.458832 235.002014,153.253052 
	C235.067123,153.047272 235.419540,152.996826 235.595947,152.973053 
z"/>
<path fill="#979388" opacity="1.000000" stroke="none" 
	d="
M276.222961,251.882355 
	C276.000275,251.099930 276.028748,250.354340 276.201721,249.263718 
	C276.555664,249.686584 276.765137,250.454483 276.975220,251.531448 
	C276.808624,251.866745 276.641388,251.892975 276.222961,251.882355 
z"/>
<path fill="#6A5716" opacity="1.000000" stroke="none" 
	d="
M386.819031,184.868805 
	C387.041748,184.822418 387.213470,185.138748 387.235840,185.317184 
	C386.806366,185.599670 386.354553,185.703720 385.553253,185.784790 
	C385.309967,185.485779 385.490631,185.272842 385.944763,185.043274 
	C386.143799,184.963486 386.596283,184.915207 386.819031,184.868805 
z"/>
<path fill="#241817" opacity="1.000000" stroke="none" 
	d="
M235.142990,157.143478 
	C235.030487,157.476639 234.870422,157.762848 234.481003,158.151352 
	C234.251648,158.253632 234.124435,158.123749 234.149979,157.825668 
	C234.450912,157.352158 234.726303,157.176727 235.001678,157.001282 
	C235.001678,157.001282 235.095444,157.096527 235.142990,157.143478 
z"/>
<path fill="#BB480F" opacity="1.000000" stroke="none" 
	d="
M365.780640,249.736237 
	C365.463898,249.789917 365.378784,249.545670 365.587463,249.136871 
	C365.683533,249.030594 365.814575,249.496582 365.780640,249.736237 
z"/>
<path fill="#F1E1D2" opacity="1.000000" stroke="none" 
	d="
M330.778717,142.189423 
	C327.419159,142.012985 324.059570,141.836548 320.189758,141.266266 
	C319.648376,130.978516 319.617279,121.084595 319.738373,110.811417 
	C319.785217,109.908211 319.679871,109.384254 319.672668,108.819611 
	C319.770813,108.778931 319.878052,108.962288 320.152344,108.761749 
	C320.249908,107.366020 320.073212,106.170822 319.793945,104.726349 
	C319.743896,104.305222 319.796387,104.133362 319.848846,103.961502 
	C320.945099,104.002533 322.041321,104.043564 323.525665,104.500687 
	C324.045807,112.501686 324.243866,112.656479 331.669556,112.719200 
	C336.911987,112.763474 342.153229,112.946404 347.569427,113.353752 
	C348.281769,114.347862 348.819702,115.055656 349.274231,116.178940 
	C349.449890,118.364807 349.168823,120.515228 350.087769,121.821388 
	C351.686310,124.093468 354.025574,125.844414 356.262878,128.083633 
	C359.942627,132.303665 363.413818,136.253922 366.885010,140.204178 
	C365.806366,140.505325 364.727692,140.806473 362.845764,141.022385 
	C351.621216,141.354584 341.199951,141.772003 330.778717,142.189423 
z"/>
<path fill="#EBCFB7" opacity="1.000000" stroke="none" 
	d="
M315.983826,146.134323 
	C315.271484,146.161758 314.559113,146.189209 313.495850,146.145523 
	C305.872833,132.324921 294.164215,124.325127 278.841309,120.005035 
	C276.857452,118.933762 275.552734,117.986717 274.065277,116.747543 
	C273.182190,115.305710 272.481873,114.155991 272.250427,112.919937 
	C276.190552,112.819061 279.661774,112.804535 283.132996,112.790009 
	C283.877686,112.565453 284.622375,112.340889 285.993286,112.282074 
	C293.246826,112.559944 299.882874,112.502884 306.498383,112.843903 
	C310.882385,113.069878 313.576782,111.727097 314.124146,106.900131 
	C315.235779,106.495010 316.115906,106.237343 317.113892,106.387863 
	C317.154449,108.201378 317.077179,109.606712 316.721497,111.319466 
	C316.290039,123.129372 316.136932,134.631851 315.983826,146.134323 
z"/>
<path fill="#271003" opacity="1.000000" stroke="none" 
	d="
M349.357635,115.763443 
	C348.819702,115.055656 348.281769,114.347862 348.008728,113.219650 
	C350.353821,112.775826 352.433990,112.752419 354.514191,112.729012 
	C355.243408,112.729584 355.972595,112.730164 357.641174,112.716293 
	C367.730499,113.170448 376.880463,113.639046 386.030426,114.107635 
	C385.996490,120.543938 385.962555,126.980232 385.877930,133.915833 
	C382.409729,133.345154 378.992157,132.275192 374.987122,130.850021 
	C369.924927,128.658356 365.450226,126.821877 360.986816,124.993195 
	C360.998138,125.000992 361.017548,125.020531 361.065155,124.716049 
	C360.652588,124.042297 360.192444,123.673035 359.518921,123.114822 
	C358.818939,122.692879 358.332367,122.459877 357.581238,122.111259 
	C356.931580,121.989944 356.546478,121.984245 356.103668,121.638550 
	C353.816528,119.453506 351.587067,117.608475 349.357635,115.763443 
z"/>
<path fill="#7E8294" opacity="1.000000" stroke="none" 
	d="
M354.613770,112.293747 
	C352.433990,112.752419 350.353821,112.775826 347.834320,112.933334 
	C342.153229,112.946404 336.911987,112.763474 331.669556,112.719200 
	C324.243866,112.656479 324.045807,112.501686 323.936951,104.490364 
	C325.161530,102.438622 326.300293,99.464119 327.574341,99.404991 
	C336.431732,98.993904 345.317200,99.187965 354.713318,99.187965 
	C354.713318,103.713287 354.713318,107.785889 354.613770,112.293747 
z"/>
<path fill="#7E8294" opacity="1.000000" stroke="none" 
	d="
M283.102203,112.340164 
	C279.661774,112.804535 276.190552,112.819061 271.868530,112.828499 
	C266.376953,112.922401 261.736206,113.021400 257.095428,113.120392 
	C250.780319,110.736359 253.635437,105.296227 253.014496,100.552765 
	C262.785309,99.650078 272.598022,99.195221 283.071411,98.709732 
	C283.071411,103.741333 283.071411,107.815826 283.102203,112.340164 
z"/>
<path fill="#7B7F90" opacity="1.000000" stroke="none" 
	d="
M386.008606,113.673676 
	C376.880463,113.639046 367.730499,113.170448 358.180969,112.622787 
	C357.781403,108.288223 357.781403,104.032707 357.781403,99.205193 
	C365.318207,99.205193 372.699921,99.100815 380.072571,99.312561 
	C381.240051,99.346100 383.067688,100.592865 383.386078,101.643570 
	C384.531830,105.424461 385.161896,109.361618 386.008606,113.673676 
z"/>
<path fill="#7E8294" opacity="1.000000" stroke="none" 
	d="
M313.892700,107.047569 
	C313.576782,111.727097 310.882385,113.069878 306.498383,112.843903 
	C299.882874,112.502884 293.246826,112.559944 286.300385,112.184822 
	C285.981262,107.962502 285.981262,104.003189 285.981262,99.300484 
	C294.246918,99.300484 302.275452,99.152794 310.285553,99.470505 
	C311.400024,99.514717 312.423492,101.851860 313.563019,103.878349 
	C313.722198,105.435295 313.807434,106.241432 313.892700,107.047569 
z"/>
<path fill="#050702" opacity="1.000000" stroke="none" 
	d="
M316.999878,111.012039 
	C317.077179,109.606712 317.154449,108.201378 317.214417,106.061729 
	C317.180908,104.873528 317.164734,104.419640 317.148529,103.965759 
	C317.824249,103.986458 318.499969,104.007156 319.512268,103.994682 
	C319.796387,104.133362 319.743896,104.305222 319.671570,105.113289 
	C319.727142,106.820427 319.802612,107.891357 319.878052,108.962288 
	C319.878052,108.962288 319.770813,108.778931 319.482178,109.006012 
	C319.324432,109.885628 319.455322,110.538155 319.586182,111.190674 
	C319.617279,121.084595 319.648376,130.978516 319.790619,141.281494 
	C319.350067,141.767502 318.798340,141.844467 317.737549,141.490555 
	C317.152252,131.043808 317.076080,121.027924 316.999878,111.012039 
z"/>
<path fill="#A93803" opacity="1.000000" stroke="none" 
	d="
M385.877869,182.685928 
	C379.698639,183.026627 373.581909,183.026627 367.465149,183.026627 
	C367.448578,182.773544 367.431976,182.520462 367.415375,182.267395 
	C373.256866,181.840942 379.098328,181.414505 385.379639,180.979218 
	C385.859772,181.428665 385.900024,181.886948 385.877869,182.685928 
z"/>
<path fill="#050702" opacity="1.000000" stroke="none" 
	d="
M244.100525,88.448105 
	C245.422607,87.944763 246.810577,87.831078 248.608185,87.818405 
	C247.878693,90.078773 246.739563,92.238144 245.355225,94.671814 
	C244.795471,92.909996 244.480927,90.873871 244.100525,88.448105 
z"/>
<path fill="#F0DECE" opacity="1.000000" stroke="none" 
	d="
M316.696625,103.911209 
	C317.164734,104.419640 317.180908,104.873528 317.096588,105.653542 
	C316.115906,106.237343 315.235779,106.495010 314.124146,106.900131 
	C313.807434,106.241432 313.722198,105.435295 313.573914,104.231346 
	C314.422180,103.841240 315.333435,103.848946 316.696625,103.911209 
z"/>
<path fill="#050702" opacity="1.000000" stroke="none" 
	d="
M460.074890,167.049316 
	C460.394165,166.768661 460.873718,166.727707 461.705017,166.774994 
	C461.449554,167.005157 460.842346,167.147095 460.074890,167.049316 
z"/>
<path fill="#050702" opacity="1.000000" stroke="none" 
	d="
M464.021271,167.012115 
	C464.258942,166.968597 464.603271,167.164902 464.887451,167.688797 
	C464.594177,167.761581 464.361053,167.506775 464.021271,167.012115 
z"/>
<path fill="#7E8294" opacity="1.000000" stroke="none" 
	d="
M410.461365,261.812561 
	C413.386047,255.939774 416.884583,253.849945 422.042206,254.875015 
	C426.624451,255.785736 429.358337,258.710114 430.017487,263.314392 
	C430.688354,268.000458 428.078857,272.233765 423.670746,274.071869 
	C416.371735,277.115417 409.589508,271.075348 410.461365,261.812561 
z"/>
<path fill="#7E8294" opacity="1.000000" stroke="none" 
	d="
M181.573212,255.544128 
	C184.580673,255.276886 187.380524,255.239716 190.633789,255.275330 
	C197.035202,260.636475 198.026199,267.152710 193.579346,271.734711 
	C189.969788,275.453979 184.046738,275.739594 179.993515,272.389862 
	C176.009857,269.097626 175.151794,263.141876 178.186569,258.901855 
	C179.038940,257.710968 180.294785,256.808838 181.573212,255.544128 
z"/>
<path fill="#3F3522" opacity="1.000000" stroke="none" 
	d="
M234.976898,156.612595 
	C234.726303,157.176727 234.450912,157.352158 234.085907,157.761200 
	C233.411835,157.924469 232.827377,157.854111 231.808929,157.705566 
	C232.405655,156.530640 233.436386,155.433914 234.708725,154.113800 
	C234.950928,154.668259 234.951508,155.446075 234.976898,156.612595 
z"/>
<path fill="#3F3522" opacity="1.000000" stroke="none" 
	d="
M230.555984,157.850861 
	C229.808746,158.115280 228.666550,158.379028 227.275604,158.437149 
	C228.071579,158.104401 229.116302,157.977295 230.555984,157.850861 
z"/>
<path fill="#979388" opacity="1.000000" stroke="none" 
	d="
M102.038757,232.775711 
	C102.323334,234.872208 102.607903,236.968704 102.924454,239.471954 
	C101.529762,239.890411 100.103096,239.902100 98.245560,239.879486 
	C97.881798,237.861435 97.948914,235.877701 98.311813,233.361176 
	C98.932312,232.632812 99.063240,232.348038 99.000389,231.974045 
	C99.000389,231.974045 99.003571,232.002792 99.298920,232.074875 
	C100.409103,232.356552 101.223930,232.566132 102.038757,232.775711 
z"/>
<path fill="#E9CEB6" opacity="1.000000" stroke="none" 
	d="
M102.069023,232.571716 
	C101.223930,232.566132 100.409103,232.356552 99.285706,232.069000 
	C99.839233,231.749435 100.701324,231.507828 101.902283,231.412689 
	C102.202126,231.830139 102.154839,232.099670 102.069023,232.571716 
z"/>
<path fill="#E9CEB6" opacity="1.000000" stroke="none" 
	d="
M98.817108,231.877457 
	C99.063240,232.348038 98.932312,232.632812 98.386818,232.938187 
	C98.164246,232.834915 98.162460,232.621841 98.190170,232.089081 
	C98.219658,231.769379 98.633835,231.780869 98.817108,231.877457 
z"/>
<path fill="#F0E0D0" opacity="1.000000" stroke="none" 
	d="
M327.931702,154.826324 
	C328.798737,152.695419 329.665771,150.564514 331.158722,148.116974 
	C342.765717,148.249283 353.746765,148.698181 364.727814,149.147095 
	C365.201202,150.883865 365.674591,152.620651 366.279480,154.989639 
	C365.949554,156.359741 365.488098,157.097626 364.720337,158.000397 
	C356.358582,165.716095 347.539490,172.101547 337.123352,176.050018 
	C336.506256,175.815063 335.727295,175.212234 335.296906,175.401611 
	C330.592102,177.471588 326.574951,178.727371 328.567657,170.874084 
	C328.629852,170.628860 328.392883,170.098709 328.180756,170.023056 
	C320.463470,167.271744 325.382385,160.740891 323.999512,155.655090 
	C324.445526,155.152985 324.891174,155.103088 325.672546,155.422180 
	C326.279510,156.264801 326.550812,156.738403 326.822144,157.212006 
	C327.191986,156.416779 327.561859,155.621552 327.931702,154.826324 
M329.437714,156.487457 
	C329.437714,156.487457 329.519989,156.443878 329.437714,156.487457 
z"/>
<path fill="#E09422" opacity="1.000000" stroke="none" 
	d="
M365.026672,157.835495 
	C365.488098,157.097626 365.949554,156.359741 366.501892,155.308365 
	C370.116241,150.508072 373.680969,146.052704 377.136505,141.514221 
	C378.101898,140.246277 378.745117,138.733032 379.592010,137.233368 
	C385.046692,143.697327 385.240631,149.057800 380.449219,155.120255 
	C378.213989,157.948425 375.982178,160.779297 373.739471,163.903885 
	C373.068329,164.173187 372.406494,164.147537 371.253204,163.813934 
	C368.850037,161.615814 366.938354,159.725647 365.026672,157.835495 
z"/>
<path fill="#8D571C" opacity="1.000000" stroke="none" 
	d="
M364.651306,148.832855 
	C353.746765,148.698181 342.765717,148.249283 331.307800,147.765594 
	C330.811768,146.148773 330.792572,144.566727 330.776062,142.587051 
	C341.199951,141.772003 351.621216,141.354584 362.490234,141.056152 
	C363.483582,143.622986 364.029175,146.070816 364.651306,148.832855 
z"/>
<path fill="#271003" opacity="1.000000" stroke="none" 
	d="
M367.178986,140.038467 
	C363.413818,136.253922 359.942627,132.303665 356.368164,127.803436 
	C356.852600,126.447777 357.440338,125.642105 358.403259,124.838707 
	C359.524811,124.900826 360.271179,124.960678 361.017548,125.020531 
	C361.017548,125.020531 360.998138,125.000992 361.094360,125.312454 
	C364.169708,129.071884 367.148865,132.519852 370.128021,135.967834 
	C369.242981,137.269470 368.357971,138.571106 367.178986,140.038467 
z"/>
<path fill="#8D571C" opacity="1.000000" stroke="none" 
	d="
M370.368744,135.730957 
	C367.148865,132.519852 364.169708,129.071884 361.083038,125.304657 
	C365.450226,126.821877 369.924927,128.658356 374.630859,130.731537 
	C373.444550,132.476852 372.027008,133.985474 370.368744,135.730957 
z"/>
<path fill="#A93803" opacity="1.000000" stroke="none" 
	d="
M346.377167,215.502762 
	C346.432312,214.661102 346.621643,214.108734 346.810974,213.556366 
	C347.626434,214.538162 348.441925,215.519943 349.257416,216.501724 
	C348.984467,216.758286 348.711548,217.014847 348.438599,217.271408 
	C347.796204,216.778290 347.153778,216.285172 346.377167,215.502762 
z"/>
<path fill="#E9CEB6" opacity="1.000000" stroke="none" 
	d="
M253.383423,181.387115 
	C257.183838,178.531876 261.591522,175.756119 265.588745,172.479630 
	C270.152985,168.738342 274.351807,164.551285 278.875549,160.266434 
	C280.781525,158.588409 282.521362,157.201889 285.271088,155.010605 
	C285.886627,162.471756 286.445099,169.240875 287.027832,176.459839 
	C275.971191,178.354935 264.890259,179.800171 253.383423,181.387115 
z"/>
<path fill="#E9CEB6" opacity="1.000000" stroke="none" 
	d="
M272.648560,198.076660 
	C272.853455,200.532196 272.593597,203.005844 272.663483,206.167725 
	C273.000427,216.494354 273.055511,226.133179 272.970764,235.770752 
	C272.955475,237.511429 272.365784,239.247055 272.041321,240.985016 
	C268.769897,226.957031 265.498505,212.929047 262.039032,198.094772 
	C266.317841,198.094772 269.250793,198.094772 272.648560,198.076660 
z"/>
<path fill="#F0DECE" opacity="1.000000" stroke="none" 
	d="
M272.037476,241.384827 
	C272.365784,239.247055 272.955475,237.511429 272.970764,235.770752 
	C273.055511,226.133179 273.000427,216.494354 272.995178,206.381012 
	C273.422821,205.922897 273.848541,205.939758 274.579224,206.090591 
	C274.837646,206.895966 274.791077,207.567352 274.526184,208.670685 
	C274.264008,209.234207 274.145477,209.406525 274.190735,209.489532 
	C274.311981,209.711914 274.503387,209.896027 274.666901,210.095352 
	C274.692841,222.099213 274.718781,234.103073 274.713440,246.513031 
	C274.320068,247.499756 273.958008,248.080399 273.380249,248.811295 
	C272.787567,246.569260 272.410614,244.176941 272.037476,241.384827 
z"/>
<path fill="#AF7942" opacity="1.000000" stroke="none" 
	d="
M274.248047,117.039665 
	C275.552734,117.986717 276.857452,118.933762 278.456299,119.946869 
	C277.377045,122.564346 276.003662,125.115776 274.315613,127.776001 
	C272.861267,126.540680 271.721558,125.196556 270.409424,123.649124 
	C269.051483,124.890114 267.999023,125.851944 266.015808,127.664345 
	C264.252350,124.553894 262.742188,121.890274 261.384674,118.629044 
	C264.300781,115.938812 266.921417,115.096924 269.975342,117.861824 
	C270.621674,118.446991 272.784149,117.357544 274.248047,117.039665 
z"/>
<path fill="#1B1D16" opacity="1.000000" stroke="none" 
	d="
M252.818619,159.941345 
	C250.524765,155.430130 253.299332,147.624786 258.447632,145.970795 
	C258.447632,151.578217 258.713409,156.971085 258.246857,162.299850 
	C258.140137,163.518784 255.508881,164.516663 253.131927,166.295471 
	C252.977280,163.442291 252.892365,161.875778 252.818619,159.941345 
z"/>
<path fill="#271003" opacity="1.000000" stroke="none" 
	d="
M274.065277,116.747543 
	C272.784149,117.357544 270.621674,118.446991 269.975342,117.861824 
	C266.921417,115.096924 264.300781,115.938812 261.300720,118.253464 
	C260.594177,118.630379 260.114716,118.940582 259.655884,118.912643 
	C257.876740,118.804245 256.104156,118.588264 254.329117,118.412346 
	C255.117126,116.839485 255.905136,115.266617 256.894287,113.407074 
	C261.736206,113.021400 266.376953,112.922401 271.399658,112.914841 
	C272.481873,114.155991 273.182190,115.305710 274.065277,116.747543 
z"/>
<path fill="#564D42" opacity="1.000000" stroke="none" 
	d="
M304.201721,205.609558 
	C304.215759,205.442490 304.512939,205.357452 304.927826,205.390747 
	C304.858673,205.569931 304.671783,205.630753 304.201721,205.609558 
z"/>
<path fill="#AF7942" opacity="1.000000" stroke="none" 
	d="
M364.720337,158.000397 
	C366.938354,159.725647 368.850037,161.615814 370.919769,163.805023 
	C359.600342,174.544189 345.719696,180.301300 331.024353,184.300827 
	C329.644714,184.676331 327.691071,182.942764 326.003906,182.188416 
	C326.086395,181.695877 326.168884,181.203354 326.251373,180.710815 
	C329.712311,179.332153 333.173279,177.953506 336.878784,176.312439 
	C347.539490,172.101547 356.358582,165.716095 364.720337,158.000397 
z"/>
<path fill="#F0DECE" opacity="1.000000" stroke="none" 
	d="
M316.721497,111.319466 
	C317.076080,121.027924 317.152252,131.043808 317.321564,141.518677 
	C317.212769,143.329071 317.010834,144.680466 316.396362,146.083099 
	C316.136932,134.631851 316.290039,123.129372 316.721497,111.319466 
z"/>
<path fill="#F0DECE" opacity="1.000000" stroke="none" 
	d="
M327.602417,154.845367 
	C327.561859,155.621552 327.191986,156.416779 326.822144,157.212006 
	C326.550812,156.738403 326.279510,156.264801 326.003479,155.494186 
	C326.423492,155.086258 326.848297,154.975327 327.602417,154.845367 
z"/>
<path fill="#979388" opacity="1.000000" stroke="none" 
	d="
M276.534363,208.814941 
	C276.291138,208.122177 276.256134,207.166153 276.550812,206.042557 
	C276.834503,206.767227 276.788544,207.659454 276.534363,208.814941 
z"/>
<path fill="#564D42" opacity="1.000000" stroke="none" 
	d="
M297.204956,205.623260 
	C297.234406,205.389771 297.562897,205.270248 297.994568,205.324600 
	C297.899841,205.578049 297.701904,205.657639 297.204956,205.623260 
z"/>
<path fill="#979388" opacity="1.000000" stroke="none" 
	d="
M274.781128,209.799896 
	C274.503387,209.896027 274.311981,209.711914 274.190735,209.489532 
	C274.145477,209.406525 274.264008,209.234207 274.492249,209.006226 
	C274.749542,209.108047 274.822479,209.306244 274.781128,209.799896 
z"/>
<path fill="#AF7942" opacity="1.000000" stroke="none" 
	d="
M358.028076,124.836456 
	C357.440338,125.642105 356.852600,126.447777 356.159607,127.533646 
	C354.025574,125.844414 351.686310,124.093468 350.087769,121.821388 
	C349.168823,120.515228 349.449890,118.364807 349.274231,116.178940 
	C351.587067,117.608475 353.816528,119.453506 356.171814,121.867264 
	C356.813690,122.366295 357.329712,122.296585 357.845764,122.226875 
	C358.332367,122.459877 358.818939,122.692879 359.362732,123.288437 
	C358.955994,124.046150 358.492035,124.441307 358.028076,124.836456 
z"/>
<path fill="#FCEFDE" opacity="1.000000" stroke="none" 
	d="
M320.152344,108.761749 
	C319.802612,107.891357 319.727142,106.820427 319.774109,105.362564 
	C320.073212,106.170822 320.249908,107.366020 320.152344,108.761749 
z"/>
<path fill="#7A756B" opacity="1.000000" stroke="none" 
	d="
M319.738342,110.811417 
	C319.455322,110.538155 319.324432,109.885628 319.384033,109.046700 
	C319.679871,109.384254 319.785217,109.908211 319.738342,110.811417 
z"/>
<path fill="#8D571C" opacity="1.000000" stroke="none" 
	d="
M358.403259,124.838715 
	C358.492035,124.441307 358.955994,124.046150 359.576111,123.477386 
	C360.192444,123.673035 360.652588,124.042297 361.065155,124.716049 
	C360.271179,124.960678 359.524811,124.900826 358.403259,124.838715 
z"/>
<path fill="#8D571C" opacity="1.000000" stroke="none" 
	d="
M357.581238,122.111259 
	C357.329712,122.296585 356.813690,122.366295 356.229492,122.207275 
	C356.546478,121.984245 356.931580,121.989944 357.581238,122.111259 
z"/>
<path fill="#F0DECE" opacity="1.000000" stroke="none" 
	d="
M329.478851,156.465668 
	C329.519989,156.443878 329.437714,156.487457 329.478851,156.465668 
z"/>
</svg>